<svg width="167" height="153" viewBox="0 0 167 153" fill="none" xmlns="http://www.w3.org/2000/svg">
<path d="M105.752 77.3004C101.566 77.7657 92.4216 81.1969 89.3257 91.2C92.2412 89.826 95.4743 87.3668 106.674 85.597" stroke="#F6F2EA" stroke-width="4" stroke-linecap="round" stroke-linejoin="round"/>
<path d="M128.583 63.0143C128.583 63.0143 130.036 63.8319 130.151 63.8881C131.679 64.6331 133.161 65.2568 134.816 65.6842C138.405 66.6114 142.103 67.1015 145.789 67.4391C149.257 67.7568 153.301 67.4129 156.637 68.5799C163.702 71.0515 164.39 81.4143 158.058 85.2151C154.866 87.1309 151.001 87.9712 147.437 88.8768C147.142 88.9517 147.265 89.9128 147.234 90.1178C146.876 92.495 146.404 94.8941 145.899 97.2429C144.625 103.161 141.869 108.114 136.855 111.663C131.13 115.714 123.995 117.112 117.229 118.396" stroke="#F6F2EA" stroke-width="5" stroke-linecap="round"/>
<path d="M19.9609 84.6342C12.6026 87.5973 2.25289 94.1208 2.62878 103.35C2.98368 112.063 14.9725 111.403 20.9254 111.657C21.6171 111.687 22.1401 114.341 22.2212 114.572C23.3996 117.932 24.6972 121.43 27.2696 124.002C33.0035 129.737 41.5173 128.407 48.6555 126.967" stroke="#F6F2EA" stroke-width="5" stroke-linecap="round"/>
<mask id="path-4-inside-1_1346_92" fill="white">
<path d="M30.604 105.324C29.4344 105.917 28.9632 107.35 29.6065 108.493C34.3704 116.959 41.281 124.038 49.6594 129.008C58.7199 134.382 69.1227 137.067 79.6523 136.748C90.1819 136.43 100.403 133.121 109.122 127.208C117.185 121.741 123.654 114.256 127.898 105.518C128.471 104.338 127.914 102.937 126.71 102.415V102.415C125.507 101.893 124.113 102.448 123.536 103.626C119.654 111.538 113.772 118.316 106.456 123.277C98.4835 128.683 89.137 131.709 79.5086 132C69.8802 132.292 60.3678 129.837 52.0828 124.922C44.4799 120.413 38.199 114.003 33.8463 106.34C33.1984 105.2 31.7737 104.73 30.604 105.324V105.324Z"/>
</mask>
<path d="M30.604 105.324C29.4344 105.917 28.9632 107.35 29.6065 108.493C34.3704 116.959 41.281 124.038 49.6594 129.008C58.7199 134.382 69.1227 137.067 79.6523 136.748C90.1819 136.43 100.403 133.121 109.122 127.208C117.185 121.741 123.654 114.256 127.898 105.518C128.471 104.338 127.914 102.937 126.71 102.415V102.415C125.507 101.893 124.113 102.448 123.536 103.626C119.654 111.538 113.772 118.316 106.456 123.277C98.4835 128.683 89.137 131.709 79.5086 132C69.8802 132.292 60.3678 129.837 52.0828 124.922C44.4799 120.413 38.199 114.003 33.8463 106.34C33.1984 105.2 31.7737 104.73 30.604 105.324V105.324Z" stroke="#F6F2EA" stroke-width="10" stroke-linejoin="round" mask="url(#path-4-inside-1_1346_92)"/>
<mask id="path-5-inside-2_1346_92" fill="white">
<path d="M120.264 53.8468C121.573 52.9115 121.881 51.087 120.879 49.829C116.211 43.9727 110.399 39.1133 103.787 35.5537C96.3193 31.5332 88.0293 29.2778 79.5538 28.9606C71.0783 28.6434 62.6429 30.273 54.8953 33.724C48.0359 36.7795 41.8773 41.1908 36.7848 46.6819C35.691 47.8614 35.8624 49.704 37.0977 50.7344V50.7344C38.3329 51.7649 40.1635 51.5924 41.2646 50.4197C45.7818 45.6086 51.2196 41.7385 57.2657 39.0453C64.2 35.9565 71.75 34.498 79.3359 34.7819C86.9218 35.0658 94.3417 37.0845 101.026 40.683C106.854 43.8205 111.987 48.0863 116.132 53.2215C117.142 54.4732 118.955 54.7821 120.264 53.8468V53.8468Z"/>
</mask>
<path d="M120.264 53.8468C121.573 52.9115 121.881 51.087 120.879 49.829C116.211 43.9727 110.399 39.1133 103.787 35.5537C96.3193 31.5332 88.0293 29.2778 79.5538 28.9606C71.0783 28.6434 62.6429 30.273 54.8953 33.724C48.0359 36.7795 41.8773 41.1908 36.7848 46.6819C35.691 47.8614 35.8624 49.704 37.0977 50.7344V50.7344C38.3329 51.7649 40.1635 51.5924 41.2646 50.4197C45.7818 45.6086 51.2196 41.7385 57.2657 39.0453C64.2 35.9565 71.75 34.498 79.3359 34.7819C86.9218 35.0658 94.3417 37.0845 101.026 40.683C106.854 43.8205 111.987 48.0863 116.132 53.2215C117.142 54.4732 118.955 54.7821 120.264 53.8468V53.8468Z" stroke="#F6F2EA" stroke-width="10" stroke-linejoin="round" mask="url(#path-5-inside-2_1346_92)"/>
<mask id="path-6-inside-3_1346_92" fill="white">
<path d="M73.4115 116.035C72.9745 117.076 73.4623 118.285 74.541 118.619C78.8922 119.965 83.5839 119.865 87.9009 118.301C92.218 116.737 95.885 113.809 98.3642 109.988C98.9789 109.041 98.5793 107.8 97.5768 107.281V107.281C96.5742 106.761 95.3501 107.161 94.7133 108.094C92.7229 111.008 89.8586 113.243 86.5081 114.457C83.1576 115.671 79.5268 115.789 76.1314 114.826C75.045 114.517 73.8485 114.994 73.4115 116.035V116.035Z"/>
</mask>
<path d="M73.4115 116.035C72.9745 117.076 73.4623 118.285 74.541 118.619C78.8922 119.965 83.5839 119.865 87.9009 118.301C92.218 116.737 95.885 113.809 98.3642 109.988C98.9789 109.041 98.5793 107.8 97.5768 107.281V107.281C96.5742 106.761 95.3501 107.161 94.7133 108.094C92.7229 111.008 89.8586 113.243 86.5081 114.457C83.1576 115.671 79.5268 115.789 76.1314 114.826C75.045 114.517 73.8485 114.994 73.4115 116.035V116.035Z" stroke="#F6F2EA" stroke-width="10" stroke-linejoin="round" mask="url(#path-6-inside-3_1346_92)"/>
<ellipse cx="56.7148" cy="95.3818" rx="7" ry="9" transform="rotate(-7.46248 56.7148 95.3818)" fill="#F6F2EA"/>
<path d="M141.535 34.5916C141.366 33.6788 140.152 33.4687 139.686 34.2716L136.844 39.1703C136.697 39.4227 136.448 39.5986 136.161 39.6517L130.592 40.6824C129.679 40.8514 129.469 42.0647 130.272 42.5306L135.17 45.3734C135.423 45.5198 135.599 45.7693 135.652 46.0563L136.682 51.6255C136.851 52.5383 138.065 52.7483 138.531 51.9454L141.373 47.0467C141.52 46.7943 141.769 46.6185 142.056 46.5653L147.625 45.5346C148.538 45.3657 148.748 44.1523 147.945 43.6864L143.047 40.8437C142.794 40.6972 142.618 40.4477 142.565 40.1607L141.535 34.5916Z" fill="#F6F2EA"/>
<path d="M56.4523 36.1039C53.7483 34.1287 51.8722 29.831 51.1631 26.7339C49.4993 19.467 52.0711 12.4755 57.6508 7.63782C59.4332 6.09239 62.0473 4.76236 64.2503 3.84278C64.9402 3.55482 65.683 2.98789 66.3994 3.20156C66.8983 3.35036 67.4315 9.49149 67.432 9.49528C68.424 17.1188 69.6074 26.5148 62.9456 31.9123C61.7611 32.872 60.3165 33.801 58.9765 34.5449" stroke="#F6F2EA" stroke-width="5" stroke-linecap="round"/>
<path d="M31.1042 60.3004C27.0501 65.9649 25.229 74.4555 29.2631 80.5328C31.4899 83.8875 35.5477 85.8132 39.7408 86.2291C44.1159 86.663 47.3802 85.0743 50.6736 82.6349C51.6267 81.9289 52.7338 80.5761 53.8904 80.0918C54.1795 79.9707 54.7505 81.5335 56.1762 82.7663C60.0996 86.1589 67.3469 87.0065 72.1669 84.859C76.4159 82.9659 79 78.8004 80.5 75.3004" stroke="#F6F2EA" stroke-width="5" stroke-linecap="round"/>
</svg>
